HIERARCHY
ROOT Pelvis
{
	OFFSET 0.000000 0.000000 0.000000
	CHANNELS 6 Xposition Yposition Zposition Xrotation Yrotation Zrotation
	JOINT LeftUpLeg_virtual
	{
		OFFSET 0.000000 0.000000 0.000000
		CHANNELS 3 Xrotation Yrotation Zrotation
		JOINT LeftUpLeg
		{
			OFFSET 18.735201 -5.666702 -4.541200
			CHANNELS 3 Xrotation Yrotation Zrotation
			JOINT LeftLeg
			{
				OFFSET -0.021200 -31.938179 0.493100
				CHANNELS 3 Xrotation Yrotation Zrotation
				JOINT LeftFoot
				{
					OFFSET 0.021200 -31.938179 -4.336299
					CHANNELS 3 Xrotation Yrotation Zrotation
					JOINT LeftToeBase
					{
						OFFSET 0.943001 -26.722000 15.023500
						CHANNELS 3 Xrotation Yrotation Zrotation
						End Site
						{
							OFFSET 0 0 0
						}
					}
				}
			}
		}
	}
	JOINT RightUpLeg_virtual
	{
		OFFSET 0.000000 0.000000 0.000000
		CHANNELS 3 Xrotation Yrotation Zrotation
		JOINT RightUpLeg
		{
			OFFSET -18.735201 -5.666702 -4.541200
			CHANNELS 3 Xrotation Yrotation Zrotation
			JOINT RightLeg
			{
				OFFSET 0.018946 -31.938133 0.493100
				CHANNELS 3 Xrotation Yrotation Zrotation
				JOINT RightFoot
				{
					OFFSET -0.018946 -31.938126 -4.336299
					CHANNELS 3 Xrotation Yrotation Zrotation
					JOINT RightToeBase
					{
						OFFSET -0.943001 -26.722004 15.023500
						CHANNELS 3 Xrotation Yrotation Zrotation
						End Site
						{
							OFFSET 0 0 0
						}
					}
				}
			}
		}
	}
	JOINT Hips_virtual
	{
		OFFSET 0.000000 0.000000 0.000000
		CHANNELS 3 Xrotation Yrotation Zrotation
		JOINT Hips
		{
			OFFSET -0.000000 -0.000000 -0.000000
			CHANNELS 3 Xrotation Yrotation Zrotation
			JOINT Spine
			{
				OFFSET 0.000000 10.199997 -0.299500
				CHANNELS 3 Xrotation Yrotation Zrotation
				JOINT Spine1
				{
					OFFSET 0.000000 11.900002 -1.516600
					CHANNELS 3 Xrotation Yrotation Zrotation
					JOINT Spine2
					{
						OFFSET 0.000000 13.600006 -2.842500
						CHANNELS 3 Xrotation Yrotation Zrotation
						JOINT Neck_virtual
						{
							OFFSET 0.000000 0.000000 0.000000
							CHANNELS 3 Xrotation Yrotation Zrotation
							JOINT Neck
							{
								OFFSET 0.000000 9.624100 -2.890100
								CHANNELS 3 Xrotation Yrotation Zrotation
								JOINT Head
								{
									OFFSET 0.000000 14.068802 -1.351900
									CHANNELS 3 Xrotation Yrotation Zrotation
									End Site
									{
										OFFSET 0 0 0
									}
								}
							}
						}
						JOINT LeftShoulder_virtual
						{
							OFFSET 0.000000 0.000000 0.000000
							CHANNELS 3 Xrotation Yrotation Zrotation
							JOINT LeftShoulder
							{
								OFFSET 15.263000 10.923401 -0.547700
								CHANNELS 3 Xrotation Yrotation Zrotation
								JOINT LeftArm
								{
									OFFSET 25.438599 -2.830597 -13.032500
									CHANNELS 3 Xrotation Yrotation Zrotation
									JOINT LeftForeArm
									{
										OFFSET 29.960503 0.000000 0.000000
										CHANNELS 3 Xrotation Yrotation Zrotation
										JOINT LeftHand
										{
											OFFSET 27.849251 0.000000 0.000000
											CHANNELS 3 Xrotation Yrotation Zrotation
											End Site
											{
												OFFSET 0 0 0
											}
										}
									}
								}
							}
						}
						JOINT RightShoulder_virtual
						{
							OFFSET 0.000000 0.000000 0.000000
							CHANNELS 3 Xrotation Yrotation Zrotation
							JOINT RightShoulder
							{
								OFFSET -15.263000 10.923401 -0.547700
								CHANNELS 3 Xrotation Yrotation Zrotation
								JOINT RightArm
								{
									OFFSET -25.438599 -2.830597 -13.032500
									CHANNELS 3 Xrotation Yrotation Zrotation
									JOINT RightForeArm
									{
										OFFSET -29.960503 0.000000 0.000000
										CHANNELS 3 Xrotation Yrotation Zrotation
										JOINT RightHand
										{
											OFFSET -27.849251 0.000000 0.000000
											CHANNELS 3 Xrotation Yrotation Zrotation
											End Site
											{
												OFFSET 0 0 0
											}
										}
									}
								}
							}
						}
					}
				}
			}
		}
	}
}
MOTION
Frames: 7
Frame Time: 0.03333333
-3.478372 80.388435 2.191277 0.000000 0.000000 0.000000 -5.981334 -41.135128 0.226441 -36.889978 5.709844 23.152531 63.591827 -10.905566 3.197922 -23.126527 -8.065852 -18.202796 0.000000 0.000000 0.000000 -6.744337 -40.199266 -0.595207 -22.966935 -12.369976 -34.233055 64.078458 -7.710366 -4.214297 -35.543553 -12.331972 25.203743 0.000000 0.000000 0.000000 -5.919813 -40.120477 0.341383 -1.281292 -0.616217 -0.414238 10.487493 5.354471 -2.540551 2.839149 0.552812 -0.979076 0.000000 0.000000 0.000000 2.304695 0.349970 -1.047291 2.294121 3.672795 0.028614 0.000000 0.000000 0.000000 2.282451 0.271353 -1.281394 1.368742 1.757062 -6.977048 -50.501189 7.210075 -53.335059 175.000812 -66.463389 174.930215 0.000000 0.000000 0.000000 2.243960 0.502343 -1.423115 2.497948 12.929398 -4.445688 -54.666307 30.682825 87.175173 -176.594787 73.704687 178.279275 0.000000 0.000000 0.000000 
-3.379027 80.387985 2.358822 0.000000 0.000000 0.000000 -5.917191 -41.407824 0.307956 -37.212599 5.949248 23.428594 63.358044 -11.089789 3.133788 -23.037987 -8.034056 -18.459893 0.000000 0.000000 0.000000 -6.720271 -40.573950 -0.685405 -23.253592 -11.993694 -34.002413 64.069790 -7.166106 -4.203051 -34.583748 -11.903968 26.043708 0.000000 0.000000 0.000000 -5.782235 -40.706469 0.491064 -1.261670 -0.394568 -0.606197 10.431370 5.474415 -2.414717 2.728169 0.553350 -0.995644 0.000000 0.000000 0.000000 2.082244 0.354558 -1.026441 2.299790 3.687148 0.049479 0.000000 0.000000 0.000000 2.070524 0.279493 -1.253583 1.604147 1.182163 -6.777506 -51.879525 5.599430 -52.489942 174.962577 -67.878686 175.261466 0.000000 0.000000 0.000000 2.087161 0.519052 -1.420438 2.485361 13.329133 -4.713049 -55.585825 31.929604 87.330129 -176.438922 73.418830 178.129503 0.000000 0.000000 0.000000 
-3.379505 80.433151 2.440254 0.000000 0.000000 0.000000 -5.420298 -42.342095 0.684444 -37.260666 6.546924 23.655010 62.699176 -11.253073 2.976490 -23.275953 -7.638464 -18.407457 0.000000 0.000000 0.000000 -6.316562 -41.540620 -0.498510 -23.519849 -10.982026 -33.510189 63.790524 -6.117832 -4.462985 -33.002480 -11.129682 26.560294 0.000000 0.000000 0.000000 -5.455284 -41.733456 0.799242 -1.153094 -0.323436 -0.904325 10.157652 5.971319 -2.417746 2.578409 0.662002 -0.982493 0.000000 0.000000 0.000000 1.803813 0.449163 -1.002032 2.278004 3.687573 0.001105 0.000000 0.000000 0.000000 1.887144 0.402257 -1.124460 1.648525 0.655568 -6.063104 -53.216210 3.762877 -52.296313 175.481329 -70.893375 176.200152 0.000000 0.000000 0.000000 1.855650 0.618713 -1.358715 2.487673 13.361827 -4.864889 -54.867388 33.950555 85.857459 -176.360088 71.780876 178.125555 0.000000 0.000000 0.000000 
-3.432586 80.562523 2.496677 0.000000 0.000000 0.000000 -4.643280 -43.920818 1.222084 -36.907904 7.490024 23.871591 61.867492 -11.390930 2.709387 -23.542496 -7.026460 -18.155529 0.000000 0.000000 0.000000 -5.617976 -43.133013 -0.084535 -23.940067 -9.750173 -32.951817 63.362319 -4.959882 -4.788103 -31.963895 -10.526729 26.070994 0.000000 0.000000 0.000000 -4.986514 -43.171259 1.144413 -1.038130 -0.423091 -1.152303 9.707834 6.758213 -2.544827 2.349866 0.895955 -0.969051 0.000000 0.000000 0.000000 1.513788 0.630732 -1.009920 2.197218 3.685783 -0.102555 0.000000 0.000000 0.000000 1.728781 0.629704 -1.009772 1.455249 0.446240 -5.311305 -53.933366 2.917010 -52.630958 176.541785 -73.160738 177.514472 0.000000 0.000000 0.000000 1.623030 0.815034 -1.301322 2.453169 12.870741 -4.988780 -53.317020 35.969935 83.589740 -176.262307 70.398828 178.062881 0.000000 0.000000 0.000000 
-3.484271 80.788986 2.655842 0.000000 0.000000 0.000000 -3.809489 -45.997940 1.720475 -36.189952 8.765570 24.221623 61.247720 -11.411421 2.369098 -23.519172 -6.171570 -17.520530 0.000000 0.000000 0.000000 -4.775177 -45.205716 0.404319 -24.758114 -8.437296 -32.500359 62.883414 -3.756651 -5.027222 -31.023143 -10.053185 24.846625 0.000000 0.000000 0.000000 -4.431278 -45.018221 1.418627 -1.033453 -0.413652 -1.195801 9.258535 7.618855 -2.715523 2.011598 1.210432 -0.995060 0.000000 0.000000 0.000000 1.189634 0.902276 -1.082318 2.043696 3.699408 -0.218235 0.000000 0.000000 0.000000 1.485880 0.905670 -0.981537 1.022353 0.578108 -4.782446 -53.676517 3.248772 -52.736399 177.430993 -72.771690 178.492295 0.000000 0.000000 0.000000 1.472678 1.096396 -1.294846 2.398699 11.920465 -5.106337 -52.218053 37.588061 81.601308 -176.181970 70.221851 177.838592 0.000000 0.000000 0.000000 
-3.560707 81.091888 2.872087 0.000000 0.000000 0.000000 -3.159825 -48.385142 1.964375 -35.075214 10.259260 24.664933 61.112127 -11.238386 2.037579 -23.591087 -4.977281 -16.325042 0.000000 0.000000 0.000000 -3.990923 -47.578667 0.774752 -26.043633 -7.113364 -32.246894 62.255235 -2.401787 -5.267422 -29.291659 -9.469960 23.552678 0.000000 0.000000 0.000000 -3.872226 -47.163570 1.550565 -0.925514 -0.272369 -1.193326 9.043982 8.279951 -2.851776 1.651343 1.515594 -1.069749 0.000000 0.000000 0.000000 0.860337 1.179923 -1.191330 1.793511 3.746419 -0.316417 0.000000 0.000000 0.000000 1.193349 1.164811 -1.064116 0.571317 1.260852 -4.216113 -52.492227 3.951276 -51.851395 177.604945 -69.855090 178.547347 0.000000 0.000000 0.000000 1.340305 1.365249 -1.353611 2.314839 10.729631 -5.171208 -52.770967 39.143606 80.891590 -176.016926 71.254227 177.302490 0.000000 0.000000 0.000000 
-3.640241 81.424995 3.142071 0.000000 0.000000 0.000000 -2.803494 -50.846428 1.907221 -33.363254 11.726530 24.983048 61.089854 -10.987990 1.837696 -24.295183 -3.559723 -14.803557 0.000000 0.000000 0.000000 -3.425248 -50.012971 0.917866 -27.479852 -5.850047 -32.029025 61.218869 -0.809289 -5.610086 -27.078490 -8.696519 22.632433 0.000000 0.000000 0.000000 -3.362507 -49.413239 1.577536 -0.852564 -0.158987 -1.029110 9.137377 8.544570 -2.897677 1.297448 1.683683 -1.186611 0.000000 0.000000 0.000000 0.542812 1.362131 -1.285318 1.465939 3.834643 -0.385428 0.000000 0.000000 0.000000 0.883082 1.312041 -1.216224 0.197349 2.295957 -3.213023 -50.973077 3.954783 -49.305988 177.181637 -67.195633 177.828032 0.000000 0.000000 0.000000 1.142985 1.532754 -1.452734 2.158037 9.578041 -5.165583 -54.703419 41.008814 81.314140 -175.815216 72.599037 176.630536 0.000000 0.000000 0.000000 
